<?xml version="1.0" encoding="utf-8"?>
<!-- Generator: Adobe Illustrator 26.3.1, SVG Export Plug-In . SVG Version: 6.00 Build 0)  -->
<svg version="1.1" id="Layer_1" xmlns="http://www.w3.org/2000/svg" xmlns:xlink="http://www.w3.org/1999/xlink" x="0px" y="0px"
	 viewBox="0 0 820 296" style="enable-background:new 0 0 820 296;" xml:space="preserve">
<style type="text/css">
	.st0{fill:#FFFFFF;}
	.st1{fill:#E42527;}
	.st2{fill:#E32327;}
	.st3{fill:#089949;}
	.st4{fill:#049849;}
	.st5{fill:#226DB4;}
	.st6{fill:#216DB3;}
	.st7{fill:#F9B21D;}
	.st8{fill:#F8B11C;}
</style>
<g>
	<g>
		<path d="M369.02,221.07c1.2,3.3,2.8,6.17,4.79,8.63c1.99,2.46,4.29,4.53,6.91,6.2c2.62,1.68,5.49,2.93,8.63,3.77
			s6.46,1.25,9.97,1.25c2.67,0,5.3-0.35,7.89-1.06c2.59-0.71,4.9-1.78,6.94-3.22c2.04-1.44,3.7-3.27,4.98-5.49
			c1.28-2.22,1.92-4.83,1.92-7.81c0-3.19-0.73-5.78-2.2-7.77c-1.47-1.99-3.41-3.6-5.85-4.83s-5.25-2.2-8.44-2.9
			c-3.19-0.71-6.54-1.37-10.04-2c-4.45-0.78-8.89-1.74-13.34-2.86c-4.45-1.12-8.45-2.84-12.01-5.14c-3.56-2.3-6.45-5.47-8.67-9.5
			c-2.22-4.03-3.33-9.34-3.33-15.93c0-5.49,1.14-10.32,3.41-14.48c2.28-4.16,5.27-7.64,8.98-10.44c3.71-2.8,7.94-4.89,12.67-6.28
			c4.73-1.39,9.59-2.08,14.56-2.08c4.6,0,9.02,0.48,13.26,1.45c4.24,0.97,8.17,2.49,11.81,4.55c3.64,2.07,6.88,4.7,9.73,7.89
			c2.85,3.19,5.17,7.04,6.95,11.54l-16.32,7.38c-2.46-5.07-5.89-9.05-10.28-11.93c-4.39-2.88-9.52-4.32-15.38-4.32
			c-2.35,0-4.64,0.26-6.87,0.79c-2.22,0.52-4.21,1.39-5.96,2.59c-1.75,1.2-3.17,2.76-4.24,4.67c-1.07,1.91-1.61,4.28-1.61,7.1
			c0,3.09,0.68,5.6,2.04,7.53c1.36,1.94,3.2,3.51,5.53,4.71c2.33,1.2,5.04,2.16,8.12,2.86c3.09,0.71,6.38,1.37,9.89,2
			c3.03,0.52,6.08,1.1,9.14,1.73s6.03,1.45,8.91,2.47c2.88,1.02,5.57,2.29,8.08,3.81c2.51,1.52,4.71,3.43,6.59,5.73
			c1.88,2.3,3.36,5.09,4.43,8.36c1.07,3.27,1.61,7.13,1.61,11.58c0,5.81-1.24,10.93-3.73,15.38c-2.49,4.45-5.74,8.17-9.77,11.18
			c-4.03,3.01-8.62,5.27-13.77,6.79c-5.15,1.52-10.37,2.28-15.66,2.28c-5.18,0-10.27-0.5-15.26-1.49c-5-0.99-9.64-2.62-13.93-4.87
			c-4.29-2.25-8.04-5.2-11.26-8.87c-3.22-3.66-5.61-8.16-7.18-13.5L369.02,221.07z"/>
		<path d="M450.95,213.85c0-6.59,1.27-12.59,3.81-18.01c2.54-5.41,5.95-10.04,10.24-13.89c4.29-3.84,9.27-6.83,14.95-8.95
			c5.68-2.12,11.68-3.18,18.01-3.18c6.38,0,12.32,1.06,17.81,3.18c5.49,2.12,10.27,5.1,14.32,8.95c4.05,3.85,7.23,8.45,9.53,13.81
			s3.45,11.26,3.45,17.7c0,6.59-1.2,12.58-3.61,17.97c-2.41,5.39-5.69,9.99-9.85,13.81c-4.16,3.82-9.04,6.78-14.63,8.87
			c-5.6,2.09-11.56,3.14-17.89,3.14c-6.38,0-12.39-1.06-18.01-3.18c-5.62-2.12-10.51-5.09-14.67-8.91
			c-4.16-3.82-7.44-8.38-9.85-13.69C452.15,226.16,450.95,220.29,450.95,213.85z M497.64,241.79c4.19,0,7.78-0.78,10.79-2.35
			c3.01-1.57,5.48-3.65,7.42-6.24c1.93-2.59,3.36-5.58,4.28-8.99c0.92-3.4,1.37-6.93,1.37-10.59c0-3.87-0.5-7.52-1.49-10.95
			c-1-3.43-2.5-6.43-4.51-9.02c-2.01-2.59-4.54-4.63-7.57-6.12c-3.04-1.49-6.62-2.24-10.75-2.24c-4.24,0-7.86,0.79-10.87,2.35
			c-3.01,1.57-5.45,3.68-7.34,6.32c-1.88,2.64-3.27,5.7-4.16,9.18c-0.89,3.48-1.33,7.15-1.33,11.03c0,3.71,0.5,7.25,1.49,10.59
			c0.99,3.35,2.5,6.28,4.51,8.79c2.01,2.51,4.52,4.51,7.53,6C490.01,241.04,493.56,241.79,497.64,241.79z"/>
		<path d="M633.55,231.9c-1.41,4.39-3.4,8.19-5.96,11.38c-2.56,3.19-5.54,5.82-8.95,7.89c-3.4,2.07-7.14,3.6-11.22,4.59
			c-4.08,0.99-8.32,1.49-12.71,1.49c-6.64,0-12.61-1.07-17.89-3.22c-5.29-2.14-9.76-5.14-13.42-8.99c-3.66-3.85-6.46-8.46-8.4-13.85
			c-1.94-5.39-2.9-11.33-2.9-17.81c0-6.22,1.06-12.01,3.18-17.34s5.09-9.94,8.91-13.81c3.82-3.87,8.36-6.91,13.62-9.1
			s11.05-3.3,17.38-3.3c4.24,0,8.3,0.46,12.2,1.37c3.9,0.92,7.49,2.33,10.79,4.24c3.3,1.91,6.21,4.35,8.75,7.34
			c2.54,2.98,4.59,6.54,6.16,10.67l-16.24,7.14c-1.67-4.76-4.43-8.42-8.28-10.99c-3.84-2.56-8.31-3.85-13.38-3.85
			c-4.08,0-7.55,0.81-10.4,2.43c-2.85,1.62-5.17,3.78-6.95,6.47c-1.78,2.69-3.07,5.75-3.88,9.18c-0.81,3.43-1.22,6.95-1.22,10.55
			c0,3.71,0.42,7.25,1.26,10.59c0.84,3.35,2.17,6.28,4,8.79c1.83,2.51,4.18,4.51,7.06,6c2.88,1.49,6.36,2.24,10.44,2.24
			c5.81,0,10.62-1.49,14.44-4.47c3.82-2.98,6.59-7.11,8.32-12.4L633.55,231.9z"/>
		<path d="M648.22,147.47c0-1.67,0.31-3.2,0.94-4.59c0.63-1.39,1.49-2.59,2.59-3.61c1.1-1.02,2.37-1.8,3.81-2.35
			c1.44-0.55,2.97-0.82,4.59-0.82c1.62,0,3.14,0.29,4.55,0.86c1.41,0.58,2.65,1.37,3.73,2.39c1.07,1.02,1.91,2.22,2.51,3.61
			c0.6,1.39,0.9,2.92,0.9,4.59c0,1.62-0.3,3.14-0.9,4.55s-1.41,2.62-2.43,3.61c-1.02,1-2.24,1.78-3.65,2.35
			c-1.41,0.58-2.96,0.86-4.63,0.86c-1.62,0-3.17-0.29-4.63-0.86c-1.46-0.58-2.75-1.37-3.85-2.39c-1.1-1.02-1.96-2.24-2.59-3.65
			C648.54,150.6,648.22,149.09,648.22,147.47z M650.03,171.79h20.09v83.89h-20.09V171.79z"/>
		<path d="M741.06,245.4c-3.19,4.24-7.02,7.27-11.5,9.1c-4.47,1.83-9.33,2.75-14.56,2.75c-3.92,0-7.6-0.5-11.03-1.49
			c-3.43-0.99-6.41-2.51-8.95-4.55c-2.54-2.04-4.54-4.59-6-7.65c-1.47-3.06-2.2-6.66-2.2-10.79c0-3.87,0.64-7.23,1.92-10.08
			c1.28-2.85,3.01-5.27,5.18-7.26c2.17-1.99,4.72-3.61,7.65-4.87c2.93-1.26,6.03-2.24,9.3-2.94c3.27-0.71,6.63-1.19,10.08-1.45
			c3.45-0.26,6.8-0.39,10.04-0.39h9.89v-1.33c0-2.98-0.22-5.69-0.67-8.12c-0.45-2.43-1.27-4.5-2.47-6.2
			c-1.2-1.7-2.86-3.01-4.98-3.92c-2.12-0.91-4.88-1.37-8.28-1.37c-4.08,0-7.83,1.03-11.26,3.1c-3.43,2.07-5.9,5.04-7.42,8.91
			l-15.62-6.75c1.41-3.71,3.4-6.85,5.96-9.42c2.56-2.56,5.47-4.66,8.71-6.28c3.24-1.62,6.72-2.79,10.44-3.49
			c3.71-0.71,7.46-1.06,11.22-1.06c4.97,0,9.55,0.62,13.73,1.84c4.18,1.23,7.81,3.1,10.87,5.61s5.44,5.72,7.14,9.61
			s2.55,8.51,2.55,13.85v54.93h-19.78V245.4z M730.78,218.09c-2.3,0-4.85,0.12-7.65,0.35c-2.8,0.24-5.41,0.82-7.85,1.77
			c-2.43,0.94-4.46,2.33-6.08,4.16c-1.62,1.83-2.43,4.34-2.43,7.53c0,2.04,0.34,3.75,1.02,5.14c0.68,1.39,1.63,2.52,2.86,3.41
			c1.23,0.89,2.65,1.53,4.28,1.92c1.62,0.39,3.37,0.59,5.26,0.59c2.56,0,5.07-0.34,7.53-1.02c2.46-0.68,4.67-1.7,6.63-3.06
			c1.96-1.36,3.54-3.1,4.75-5.22c1.2-2.12,1.81-4.59,1.81-7.42v-8.16H730.78z"/>
		<path d="M782.57,137.58l20.09-8.71v126.81h-20.09V137.58z"/>
	</g>
	<g>
		<g>
			<path d="M360.31,104.43l36.97-53.42h-33.23V40.47h50.63v5.25l-36.07,53.42h35.03v10.54h-53.32V104.43z"/>
			<path d="M418.03,84.48c0-3.97,0.76-7.59,2.29-10.85c1.53-3.26,3.58-6.05,6.17-8.37c2.58-2.32,5.58-4.11,9-5.39
				c3.42-1.28,7.04-1.91,10.85-1.91c3.84,0,7.42,0.64,10.73,1.91c3.31,1.28,6.18,3.07,8.63,5.39s4.36,5.09,5.74,8.32
				c1.39,3.23,2.08,6.78,2.08,10.66c0,3.97-0.73,7.58-2.17,10.83c-1.45,3.25-3.43,6.02-5.93,8.32c-2.51,2.3-5.44,4.08-8.82,5.34
				c-3.37,1.26-6.97,1.89-10.78,1.89c-3.84,0-7.46-0.64-10.85-1.91c-3.39-1.28-6.33-3.06-8.84-5.37c-2.51-2.3-4.48-5.05-5.93-8.25
				C418.76,91.89,418.03,88.35,418.03,84.48z M446.16,101.3c2.52,0,4.69-0.47,6.5-1.42c1.81-0.95,3.3-2.2,4.47-3.76
				c1.17-1.56,2.03-3.36,2.58-5.41c0.55-2.05,0.83-4.18,0.83-6.38c0-2.33-0.3-4.53-0.9-6.59c-0.6-2.06-1.51-3.88-2.72-5.44
				c-1.21-1.56-2.73-2.79-4.56-3.69c-1.83-0.9-3.99-1.35-6.48-1.35c-2.55,0-4.74,0.47-6.55,1.42c-1.81,0.95-3.29,2.21-4.42,3.81
				c-1.13,1.59-1.97,3.44-2.5,5.53c-0.54,2.1-0.8,4.31-0.8,6.64c0,2.24,0.3,4.37,0.9,6.38s1.5,3.78,2.72,5.29
				c1.21,1.51,2.73,2.72,4.54,3.62C441.56,100.86,443.7,101.3,446.16,101.3z"/>
			<path d="M482.37,36.12h12.1v30.96c0.82-1.58,1.83-2.94,3.05-4.09c1.21-1.15,2.55-2.1,4.02-2.84c1.46-0.74,3.04-1.29,4.73-1.65
				c1.69-0.36,3.4-0.54,5.13-0.54c3.03,0,5.67,0.5,7.94,1.51c2.27,1.01,4.16,2.4,5.67,4.18c1.51,1.78,2.65,3.89,3.4,6.33
				c0.76,2.44,1.13,5.11,1.13,8.01v31.67h-12.2V79.18c0-3.66-0.92-6.45-2.77-8.37s-4.53-2.88-8.06-2.88c-3.91,0-6.89,1.09-8.96,3.29
				s-3.1,5.1-3.1,8.72v29.73h-12.1V36.12z"/>
			<path d="M537.39,84.48c0-3.97,0.76-7.59,2.29-10.85c1.53-3.26,3.58-6.05,6.17-8.37c2.58-2.32,5.58-4.11,9-5.39
				c3.42-1.28,7.04-1.91,10.85-1.91c3.84,0,7.42,0.64,10.73,1.91c3.31,1.28,6.18,3.07,8.63,5.39s4.36,5.09,5.74,8.32
				c1.39,3.23,2.08,6.78,2.08,10.66c0,3.97-0.73,7.58-2.17,10.83c-1.45,3.25-3.43,6.02-5.93,8.32c-2.51,2.3-5.44,4.08-8.82,5.34
				c-3.37,1.26-6.97,1.89-10.78,1.89c-3.84,0-7.46-0.64-10.85-1.91c-3.39-1.28-6.33-3.06-8.84-5.37c-2.51-2.3-4.48-5.05-5.93-8.25
				C538.12,91.89,537.39,88.35,537.39,84.48z M565.52,101.3c2.52,0,4.69-0.47,6.5-1.42c1.81-0.95,3.3-2.2,4.47-3.76
				c1.17-1.56,2.03-3.36,2.58-5.41c0.55-2.05,0.83-4.18,0.83-6.38c0-2.33-0.3-4.53-0.9-6.59c-0.6-2.06-1.51-3.88-2.72-5.44
				c-1.21-1.56-2.73-2.79-4.56-3.69c-1.83-0.9-3.99-1.35-6.48-1.35c-2.55,0-4.74,0.47-6.55,1.42c-1.81,0.95-3.29,2.21-4.42,3.81
				c-1.13,1.59-1.97,3.44-2.5,5.53c-0.54,2.1-0.8,4.31-0.8,6.64c0,2.24,0.3,4.37,0.9,6.38s1.5,3.78,2.72,5.29
				c1.21,1.51,2.73,2.72,4.54,3.62C560.93,100.86,563.06,101.3,565.52,101.3z"/>
		</g>
	</g>
</g>
<g>
	<g>
		<g>
			<path class="st1" d="M189.06,224.36c-0.99,0-2.01-0.17-3.01-0.57l-45.57-17.34c-4.4-1.67-6.58-6.58-4.94-10.98
				c1.67-4.4,6.58-6.58,10.98-4.94l45.6,17.34c4.4,1.67,6.58,6.58,4.94,10.98C195.73,222.28,192.5,224.36,189.06,224.36z"/>
		</g>
		<g>
			<path class="st2" d="M189.06,224.36c-0.99,0-2.01-0.17-3.01-0.57l-45.57-17.34c-4.4-1.67-6.58-6.58-4.94-10.98
				c1.67-4.4,6.58-6.58,10.98-4.94l45.6,17.34c4.4,1.67,6.58,6.58,4.94,10.98C195.73,222.28,192.5,224.36,189.06,224.36z"/>
		</g>
	</g>
	<g>
		<g>
			<path class="st1" d="M236.28,292.83c-32.55,0-59.02-26.47-59.02-59.02s26.47-59.02,59.02-59.02s59.02,26.47,59.02,59.02
				S268.83,292.83,236.28,292.83z M236.28,191.81c-23.15,0-42,18.84-42,42s18.84,42,42,42c23.15,0,42-18.84,42-42
				S259.46,191.81,236.28,191.81z"/>
		</g>
		<g>
			<path class="st2" d="M236.28,292.83c-32.55,0-59.02-26.47-59.02-59.02s26.47-59.02,59.02-59.02s59.02,26.47,59.02,59.02
				S268.83,292.83,236.28,292.83z M236.28,191.81c-23.15,0-42,18.84-42,42s18.84,42,42,42c23.15,0,42-18.84,42-42
				S259.46,191.81,236.28,191.81z"/>
		</g>
	</g>
	<g>
		<g>
			<path class="st1" d="M283.5,260.28c-0.99,0-2.01-0.17-3.01-0.57l-47.22-17.96c-3.29-1.25-5.48-4.43-5.48-7.95v-49.97
				c0-4.68,3.8-8.51,8.51-8.51c4.71,0,8.51,3.8,8.51,8.51v44.12l41.74,15.89c4.4,1.67,6.58,6.58,4.94,10.98
				C290.17,258.21,286.93,260.28,283.5,260.28z"/>
		</g>
		<g>
			<path class="st2" d="M283.5,260.28c-0.99,0-2.01-0.17-3.01-0.57l-47.22-17.96c-3.29-1.25-5.48-4.43-5.48-7.95v-49.97
				c0-4.68,3.8-8.51,8.51-8.51c4.71,0,8.51,3.8,8.51,8.51v44.12l41.74,15.89c4.4,1.67,6.58,6.58,4.94,10.98
				C290.17,258.21,286.93,260.28,283.5,260.28z"/>
		</g>
	</g>
	<g>
		<g>
			<path class="st3" d="M135.12,143.91c-2.64,0-5.22-1.22-6.9-3.52c-2.75-3.8-1.9-9.11,1.9-11.86l40.8-29.54
				c3.8-2.75,9.11-1.9,11.86,1.9c2.75,3.8,1.9,9.11-1.9,11.86l-40.78,29.54C138.61,143.37,136.85,143.91,135.12,143.91z"/>
		</g>
		<g>
			<path class="st4" d="M135.12,143.91c-2.64,0-5.22-1.22-6.9-3.52c-2.75-3.8-1.9-9.11,1.9-11.86l40.8-29.54
				c3.8-2.75,9.11-1.9,11.86,1.9c2.75,3.8,1.9,9.11-1.9,11.86l-40.78,29.54C138.61,143.37,136.85,143.91,135.12,143.91z"/>
		</g>
	</g>
	<g>
		<g>
			<path class="st3" d="M80.81,250.21c-20.18,0-39.13-7.86-53.4-22.13c-14.24-14.24-22.1-33.2-22.1-53.37s7.86-39.13,22.13-53.4
				s33.23-22.13,53.4-22.13s39.13,7.86,53.4,22.13s22.13,33.23,22.13,53.4s-7.86,39.13-22.13,53.4
				C119.97,242.37,100.99,250.21,80.81,250.21z M80.81,116.19c-32.26,0-58.51,26.25-58.51,58.51s26.25,58.51,58.51,58.51
				s58.54-26.25,58.54-58.51S113.1,116.19,80.81,116.19z"/>
		</g>
		<g>
			<path class="st4" d="M80.81,250.21c-20.18,0-39.13-7.86-53.4-22.13c-14.24-14.24-22.1-33.2-22.1-53.37s7.86-39.13,22.13-53.4
				s33.23-22.13,53.4-22.13s39.13,7.86,53.4,22.13s22.13,33.23,22.13,53.4s-7.86,39.13-22.13,53.4
				C119.97,242.37,100.99,250.21,80.81,250.21z M80.81,116.19c-32.26,0-58.51,26.25-58.51,58.51s26.25,58.51,58.51,58.51
				s58.54-26.25,58.54-58.51S113.1,116.19,80.81,116.19z"/>
		</g>
	</g>
	<g>
		<g>
			<path class="st3" d="M62.25,196.52c-2.64,0-5.25-1.22-6.92-3.55c-2.72-3.8-1.87-9.14,1.96-11.86l15.04-10.78v-27.55
				c0-4.68,3.8-8.51,8.51-8.51c4.71,0,8.51,3.8,8.51,8.51v31.92c0,2.75-1.33,5.31-3.55,6.92l-18.59,13.34
				C65.69,196.01,63.95,196.52,62.25,196.52z"/>
		</g>
		<g>
			<path class="st4" d="M62.25,196.52c-2.64,0-5.25-1.22-6.92-3.55c-2.72-3.8-1.87-9.14,1.96-11.86l15.04-10.78v-27.55
				c0-4.68,3.8-8.51,8.51-8.51c4.71,0,8.51,3.8,8.51,8.51v31.92c0,2.75-1.33,5.31-3.55,6.92l-18.59,13.34
				C65.69,196.01,63.95,196.52,62.25,196.52z"/>
		</g>
	</g>
	<g>
		<g>
			<path class="st5" d="M212.08,132.84c-29.28,0-53.12-23.84-53.12-53.12s23.84-53.12,53.12-53.12s53.12,23.84,53.12,53.12
				S241.39,132.84,212.08,132.84z M212.08,43.6c-19.92,0-36.12,16.2-36.12,36.12s16.2,36.12,36.12,36.12s36.12-16.23,36.12-36.12
				S232,43.6,212.08,43.6z"/>
		</g>
		<g>
			<path class="st6" d="M212.08,132.84c-29.28,0-53.12-23.84-53.12-53.12s23.84-53.12,53.12-53.12s53.12,23.84,53.12,53.12
				S241.39,132.84,212.08,132.84z M212.08,43.6c-19.92,0-36.12,16.2-36.12,36.12s16.2,36.12,36.12,36.12s36.12-16.23,36.12-36.12
				S232,43.6,212.08,43.6z"/>
		</g>
	</g>
	<g>
		<g>
			<path class="st5" d="M170.36,72.35c-0.99,0-2.01-0.17-3.01-0.57l-46.96-17.85c-4.4-1.67-6.58-6.58-4.94-10.98
				c1.67-4.4,6.58-6.58,10.98-4.94l46.96,17.85c4.4,1.67,6.58,6.58,4.94,10.98C177.03,70.28,173.8,72.35,170.36,72.35z"/>
		</g>
		<g>
			<path class="st6" d="M170.36,72.35c-0.99,0-2.01-0.17-3.01-0.57l-46.96-17.85c-4.4-1.67-6.58-6.58-4.94-10.98
				c1.67-4.4,6.58-6.58,10.98-4.94l46.96,17.85c4.4,1.67,6.58,6.58,4.94,10.98C177.03,70.28,173.8,72.35,170.36,72.35z"/>
		</g>
	</g>
	<g>
		<g>
			<path class="st7" d="M99.62,70.9c-18.7,0-33.94-15.21-33.94-33.94S80.92,3.05,99.62,3.05s33.94,15.21,33.94,33.91
				S118.32,70.9,99.62,70.9z M99.62,20.05c-9.34,0-16.91,7.58-16.91,16.91s7.58,16.91,16.91,16.91s16.91-7.58,16.91-16.91
				S108.96,20.05,99.62,20.05z"/>
		</g>
		<g>
			<path class="st8" d="M99.62,70.9c-18.7,0-33.94-15.21-33.94-33.94S80.92,3.05,99.62,3.05s33.94,15.21,33.94,33.91
				S118.32,70.9,99.62,70.9z M99.62,20.05c-9.34,0-16.91,7.58-16.91,16.91s7.58,16.91,16.91,16.91s16.91-7.58,16.91-16.91
				S108.96,20.05,99.62,20.05z"/>
		</g>
	</g>
</g>
</svg>
